<?xml version="1.0" encoding="utf-8"?>
<!-- Generator: Adobe Illustrator 23.0.3, SVG Export Plug-In . SVG Version: 6.00 Build 0)  -->
<svg version="1.1" id="Layer_1" xmlns:sketch="http://www.bohemiancoding.com/sketch/ns"
	 xmlns="http://www.w3.org/2000/svg" xmlns:xlink="http://www.w3.org/1999/xlink" x="0px" y="0px" viewBox="0 0 198 140.1"
	 style="enable-background:new 0 0 198 140.1;" xml:space="preserve">
<style type="text/css">
	.st0{fill-rule:evenodd;clip-rule:evenodd;fill:#EA0B8C;}
</style>
<path id="logo_standard" sketch:type="MSShapeGroup" class="st0" d="M0,2.4h30.1v80.7c0,12.8,5.8,20.4,10.5,23.6
	c-4.9,4.3-19.8,8.1-31-1.1C3,100.2,0,91.3,0,82.8V2.4z M187.9,69.5V61h9.2V31.2H187C183.1,13.4,167.2,0,148.2,0
	c-21.9,0-39.7,17.8-39.7,39.7v69.5c6.2,0.9,13.7-0.1,20-5.4c6.6-5.4,9.6-14.4,9.6-22.8v-2.6h15V48.6h-15v-9h0
	c0-5.6,4.5-10.1,10.1-10.1c5.6,0,10.1,4.5,10.1,10.1v29.8c0,21.9,17.8,39.7,39.7,39.7V79.5C192.4,79.5,187.9,75,187.9,69.5z
	 M74,31.2v43.7c0,2.5-2.1,4.5-4.6,4.5s-4.6-2-4.6-4.5V31.2H35.1v51.3c0,9.2,3.1,20.9,17.4,24.7c14.3,3.8,22.5-4.1,22.5-4.1
	c-0.8,5.2-5.6,9-13.5,9.8c-6,0.6-13.6-1.4-17.4-3v27.2c9.7,2.9,19.9,3.8,30,1.8c18.2-3.5,29.7-18.7,29.7-39V31.2H74z"/>
</svg>
